# xmcd
#
# Track frame offsets:
#	150
#	14337
#	37557
#	56654
#	82852
#	106795
#	141226
#	163544
#	198057
#	229320
#	257405
#
# Disc length: 3845 seconds
#
# Revision: 0
# Processed by: cddbd v1.5.1PL2 Copyright (c) Steve Scherf et al.
# Submitted via: dBpowerAMP V4.0
#
DISCID=790f030b
DTITLE=John Mayer Trio - Try!
DYEAR=2005
DGENRE=Blues
TTITLE0=Who Did You Think I Was
TTITLE1=Good Love Is On The Way
TTITLE2=Wait Until Tomorrow
TTITLE3=Gravity
TTITLE4=Vultures
TTITLE5=Out Of My Mind
TTITLE6=Another Kind Of Green
TTITLE7=I got A Woman
TTITLE8=Something's Missing
TTITLE9=Daughters
TTITLE10=Try
EXTD=
EXTT0=
EXTT1=
EXTT2=
EXTT3=
EXTT4=
EXTT5=
EXTT6=
EXTT7=
EXTT8=
EXTT9=
EXTT10=
PLAYORDER=
